<svg width="32" height="32" viewBox="0 0 32 32" fill="none" xmlns="http://www.w3.org/2000/svg">
<path d="M5 12.5C5 12.2239 5.22386 12 5.5 12H6.5C6.77614 12 7 12.2239 7 12.5V19.5C7 19.7761 6.77614 20 6.5 20H5.5C5.22386 20 5 19.7761 5 19.5V12.5Z" fill="#0CEBFF"/>
<path d="M26.5 12V12.5H27H29C29.8284 12.5 30.5 13.1716 30.5 14V18C30.5 18.8284 29.8284 19.5 29 19.5H27H26.5V20V22C26.5 22.8284 25.8284 23.5 25 23.5H3C2.17157 23.5 1.5 22.8284 1.5 22V10C1.5 9.17157 2.17157 8.5 3 8.5H25C25.8284 8.5 26.5 9.17157 26.5 10V12Z" stroke="#0CEBFF"/>
</svg>
