<svg width="32" height="32" viewBox="0 0 32 32" fill="none" xmlns="http://www.w3.org/2000/svg">
<path fill-rule="evenodd" clip-rule="evenodd" d="M20 27C19.6781 28.7026 18.0097 30 16 30C13.9903 30 12.3219 28.7026 12 27H20Z" fill="#0CEBFF"/>
<path d="M16.9382 4.5579L16.9382 4.55791L16.9387 4.55796C20.635 5.01866 23.4477 8.18421 23.767 11.9529C24.5099 20.7219 26.5801 23.0159 27.108 23.4637C27.2361 23.5722 27.2843 23.6914 27.3003 23.8036C27.3179 23.9274 27.2949 24.0432 27.2749 24.1014C27.2556 24.1576 27.2006 24.2673 27.1065 24.3561C27.0223 24.4356 26.9072 24.5 26.7309 24.5H5.26913C5.09282 24.5 4.97767 24.4356 4.89346 24.3561C4.79937 24.2673 4.74443 24.1576 4.72509 24.1014L4.25349 24.2636L4.72509 24.1014C4.70509 24.0432 4.68208 23.9274 4.69972 23.8036C4.7157 23.6915 4.7639 23.5722 4.89193 23.4637C5.41989 23.016 7.49009 20.7219 8.23299 11.9529C8.55228 8.18405 11.3652 5.01841 15.0618 4.55793L15.0651 4.55754L15.0797 4.55582C15.0929 4.5543 15.1129 4.55206 15.1386 4.54934C15.19 4.54389 15.2642 4.53655 15.3535 4.5292C15.5334 4.51438 15.7687 4.5 16 4.5C16.2313 4.5 16.4666 4.51437 16.6465 4.52918C16.7358 4.53653 16.81 4.54387 16.8614 4.54931C16.8871 4.55203 16.9071 4.55427 16.9203 4.5558L16.9349 4.55751L16.9382 4.5579Z" stroke="#0CEBFF"/>
<path d="M16 4.5V2.5" stroke="#0CEBFF" stroke-linecap="round"/>
</svg>
