<svg width="32" height="32" viewBox="0 0 32 32" fill="none" xmlns="http://www.w3.org/2000/svg">
<path d="M16.5149 18.3787C16.448 18.6466 16.6108 18.9181 16.8787 18.9851C17.1466 19.052 17.4181 18.8892 17.4851 18.6213L16.5149 18.3787ZM18.9851 12.6212C19.052 12.3533 18.8892 12.0818 18.6213 12.0148C18.3534 11.9479 18.0819 12.1107 18.0149 12.3786L18.9851 12.6212ZM19 22C19 23.6569 17.6569 25 16 25V26C18.2091 26 20 24.2091 20 22H19ZM16 25C14.3431 25 13 23.6569 13 22H12C12 24.2091 13.7909 26 16 26V25ZM13 22C13 20.3431 14.3431 19 16 19V18C13.7909 18 12 19.7909 12 22H13ZM16 19C17.6569 19 19 20.3431 19 22H20C20 19.7909 18.2091 18 16 18V19ZM17.4851 18.6213L18.9851 12.6212L18.0149 12.3786L16.5149 18.3787L17.4851 18.6213ZM29 19V21H30V19H29ZM3 21V19H2V21H3ZM28 22H19.5V23H28V22ZM12.5 22H4V23H12.5V22ZM2 21C2 22.1046 2.89543 23 4 23V22C3.44772 22 3 21.5523 3 21H2ZM29 21C29 21.5523 28.5523 22 28 22V23C29.1046 23 30 22.1046 30 21H29ZM16 6C23.1797 6 29 11.8203 29 19H30C30 11.268 23.732 5 16 5V6ZM16 5C8.26801 5 2 11.268 2 19H3C3 11.8203 8.8203 6 16 6V5Z" fill="#C69C4D"/>
</svg>
