<svg width="32" height="32" viewBox="0 0 32 32" fill="none" xmlns="http://www.w3.org/2000/svg">
<path d="M19.47 26.2801L16.47 28.5301C16.3476 28.618 16.2007 28.6653 16.05 28.6653C15.8993 28.6653 15.7524 28.618 15.63 28.5301L8.18 23.0701C7.66159 22.6857 7.24049 22.1851 6.95047 21.6085C6.66046 21.032 6.5096 20.3955 6.51 19.7501V13.8401L16.01 11.8401L25.51 13.8401V19.7501" stroke="#0CEBFF" stroke-miterlimit="10" stroke-linecap="round"/>
<path d="M23.51 13.8401V6.84009L16.01 4.84009L8.51 6.84009V13.8401" stroke="#0CEBFF" stroke-miterlimit="10"/>
<path d="M16.01 2.84009V4.84009" stroke="#0CEBFF" stroke-miterlimit="10" stroke-linecap="round"/>
<path d="M26.71 23.51L29.46 26.25C29.4787 26.2744 29.4888 26.3043 29.4888 26.335C29.4888 26.3657 29.4787 26.3956 29.46 26.42L26.71 29.16" stroke="#0CEBFF" stroke-miterlimit="10" stroke-linecap="round"/>
<path d="M29.01 26.3401H22.47" stroke="#0CEBFF" stroke-miterlimit="10" stroke-linecap="round"/>
</svg>
