<svg width="32" height="32" viewBox="0 0 32 32" fill="none" xmlns="http://www.w3.org/2000/svg">
<path d="M6.49999 15.5001V14.0901L16 12.0901L25.5 14.0901V20.0001C25.5 20.6465 25.348 21.2838 25.0561 21.8605C24.7643 22.4373 24.3408 22.9373 23.82 23.3201L16.42 28.7801C16.2976 28.868 16.1507 28.9153 16 28.9153C15.8493 28.9153 15.7024 28.868 15.58 28.7801L11.33 25.6401" stroke="#0CEBFF" stroke-miterlimit="10" stroke-linecap="round"/>
<path d="M23.5 14.0901V7.08008L16 5.08008L8.49999 7.08008V14.0901" stroke="#0CEBFF" stroke-miterlimit="10"/>
<path d="M16 3.09009V5.09009" stroke="#0CEBFF" stroke-miterlimit="10" stroke-linecap="round"/>
<path d="M6.70999 18.76L9.44999 21.5C9.46118 21.5112 9.47005 21.5244 9.47611 21.539C9.48217 21.5536 9.48529 21.5692 9.48529 21.585C9.48529 21.6008 9.48217 21.6164 9.47611 21.631C9.47005 21.6456 9.46118 21.6589 9.44999 21.67L6.70999 24.41" stroke="#0CEBFF" stroke-miterlimit="10" stroke-linecap="round"/>
<path d="M8.99999 21.5901H2.45999" stroke="#0CEBFF" stroke-miterlimit="10" stroke-linecap="round"/>
</svg>
