<svg width="32" height="32" viewBox="0 0 32 32" fill="none" xmlns="http://www.w3.org/2000/svg">
<path d="M28.5 5.5C28.5 5.71536 28.3309 6.0453 27.7099 6.44056C27.1128 6.82063 26.2156 7.18158 25.0624 7.49207C22.7632 8.11108 19.559 8.5 16 8.5C12.441 8.5 9.23679 8.11108 6.9376 7.49207C5.78437 7.18158 4.88719 6.82063 4.29009 6.44056C3.66913 6.0453 3.5 5.71536 3.5 5.5C3.5 5.28464 3.66913 4.9547 4.29009 4.55944C4.88719 4.17937 5.78437 3.81842 6.9376 3.50793C9.23679 2.88892 12.441 2.5 16 2.5C19.559 2.5 22.7632 2.88892 25.0624 3.50793C26.2156 3.81842 27.1128 4.17937 27.7099 4.55944C28.3309 4.9547 28.5 5.28464 28.5 5.5Z" stroke="#0CEBFF"/>
<path fill-rule="evenodd" clip-rule="evenodd" d="M28 6.84852C28.6442 6.43349 29 5.97793 29 5.5V6V8.13099C29 11.8341 27.2903 15.3297 24.3673 17.6032L20 21V28L13 29.75L12 30V28.9692V21L7.63271 17.6032C4.70967 15.3297 3 11.8341 3 8.13099V6V5.5C3 5.97793 3.35581 6.43349 4 6.84852V8.13099C4 11.5255 5.5672 14.7298 8.24665 16.8139L12.6139 20.2106L13 20.5109V21V28.7192L19 27.2192V21V20.5109L19.3861 20.2106L23.7533 16.8139C26.4328 14.7298 28 11.5255 28 8.13099V6.84852ZM3.00163 5C3 5.15818 3 5.3247 3 5.5V5H3.00163ZM28.9984 5H29V5.5C29 5.3247 29 5.15818 28.9984 5Z" fill="#0CEBFF"/>
<path d="M13 21H19" stroke="#0CEBFF"/>
</svg>
