<svg width="32" height="32" viewBox="0 0 32 32" fill="none" xmlns="http://www.w3.org/2000/svg">
<path d="M9 21V14C9 12.8954 9.89543 12 11 12C12.1046 12 13 12.8954 13 14V17M27.5 9H22.2426C21.447 9 20.6839 9.31607 20.1213 9.87868L8.29289 21.7071C8.10536 21.8946 7.851 22 7.58579 22H4.5C2.84315 22 1.5 23.3431 1.5 25C1.5 26.6569 2.84315 28 4.5 28H9.75736C10.553 28 11.3161 27.6839 11.8787 27.1213L23.7071 15.2929C23.8946 15.1054 24.149 15 24.4142 15H27.5C29.1569 15 30.5 13.6569 30.5 12C30.5 10.3431 29.1569 9 27.5 9ZM13 7C13 8.10457 12.1046 9 11 9C9.89543 9 9 8.10457 9 7C9 5.89543 9.89543 5 11 5C12.1046 5 13 5.89543 13 7Z" stroke="#0CEBFF"/>
</svg>
