<svg width="32" height="32" viewBox="0 0 32 32" fill="none" xmlns="http://www.w3.org/2000/svg">
<path d="M30 10H2.5M2.77778 5C2.34822 5 2 5.3648 2 5.81481V26.1852C2 26.6352 2.34822 27 2.77778 27H29.2222C29.6518 27 30 26.6352 30 26.1852V6C30 5.44772 29.5523 5 29 5L2.77778 5Z" stroke="#0CEBFF" stroke-miterlimit="10" stroke-linecap="round"/>
<path d="M15.5 24.0714C15.5 24.2617 15.4574 24.4091 15.4133 24.491C15.4116 24.4942 15.4099 24.4972 15.4083 24.5H9.5917C9.59008 24.4972 9.58841 24.4942 9.58668 24.491C9.5426 24.4091 9.5 24.2617 9.5 24.0714V12.9286C9.5 12.7383 9.5426 12.5909 9.58668 12.509C9.58841 12.5058 9.59008 12.5028 9.5917 12.5H15.4083C15.4099 12.5028 15.4116 12.5058 15.4133 12.509C15.4574 12.5909 15.5 12.7383 15.5 12.9286V24.0714Z" stroke="#0CEBFF" stroke-linejoin="round"/>
<path d="M22.5 12.5V17.5H17.5V12.5H22.5Z" stroke="#0CEBFF" stroke-linejoin="round"/>
<path d="M20 19.5V24.5M17.5 22H22.5" stroke="#0CEBFF" stroke-miterlimit="10" stroke-linecap="round" stroke-linejoin="round"/>
</svg>
