<svg width="32" height="32" viewBox="0 0 32 32" fill="none" xmlns="http://www.w3.org/2000/svg">
<path d="M24.5 11.5V5.81481C24.5 5.3648 24.1518 5 23.7222 5H3.27778C2.84822 5 2.5 5.3648 2.5 5.81481V26.1852C2.5 26.6352 2.84822 27 3.27778 27H23.7222C24.1518 27 24.5 26.6352 24.5 26.1852V24M24 10L3 10M26.75 15L29.49 17.74C29.5012 17.7511 29.5101 17.7644 29.5161 17.779C29.5222 17.7936 29.5253 17.8092 29.5253 17.825C29.5253 17.8408 29.5222 17.8564 29.5161 17.871C29.5101 17.8856 29.5012 17.8989 29.49 17.91L26.75 20.65M29.5 17.8301H20.5" stroke="#0CEBFF" stroke-miterlimit="10" stroke-linecap="round"/>
</svg>
