<svg width="32" height="32" viewBox="0 0 32 32" fill="none" xmlns="http://www.w3.org/2000/svg">
<path d="M6 20H4.80217C4.33347 20 3.92766 20.3255 3.82598 20.7831L2.27043 27.7831C2.13165 28.4076 2.60687 29 3.24662 29H28.7534C29.3931 29 29.8684 28.4076 29.7296 27.7831L28.174 20.7831C28.0723 20.3255 27.6665 20 27.1978 20L26 20" stroke="#0CEBFF" stroke-linecap="round"/>
<path d="M24.5 11.6472C24.5 14.7358 22.7709 17.8745 20.7902 20.4421C18.8737 22.9263 16.7812 24.8001 16 25.4668C15.2189 24.8001 13.1263 22.9263 11.2098 20.4421C9.2291 17.8745 7.5 14.7358 7.5 11.6472C7.5 6.56208 11.3377 2.5 16 2.5C20.6623 2.5 24.5 6.56208 24.5 11.6472Z" stroke="#0CEBFF"/>
</svg>
