<svg width="32" height="32" viewBox="0 0 32 32" fill="none" xmlns="http://www.w3.org/2000/svg">
<path d="M3 10H9.5C9.77614 10 10 9.77614 10 9.5V3M9.5 9.5L3 3M10 29L10 22.5C10 22.2239 9.77614 22 9.5 22H3M9.5 22.5L3 29M22 3V9.5C22 9.77614 22.2239 10 22.5 10L29 10M22.5 9.5L29 3M29 22H22.5C22.2239 22 22 22.2239 22 22.5V29M22.5 22.5L29 29M21 16C21 18.7614 18.7614 21 16 21C13.2386 21 11 18.7614 11 16C11 13.2386 13.2386 11 16 11C18.7614 11 21 13.2386 21 16Z" stroke="#C69C4D" stroke-linecap="round"/>
</svg>
