<svg width="32" height="32" viewBox="0 0 32 32" fill="none" xmlns="http://www.w3.org/2000/svg">
<path fill-rule="evenodd" clip-rule="evenodd" d="M26.6066 7.3934C23.8921 4.67893 20.1421 3 16 3C11.8579 3 8.10787 4.67893 5.3934 7.3934L6.10051 8.1005C8.63401 5.567 12.134 4 16 4C19.866 4 23.366 5.567 25.8995 8.10051L26.6066 7.3934Z" fill="#0CEBFF"/>
<path fill-rule="evenodd" clip-rule="evenodd" d="M22.0004 11.9996C20.329 10.744 18.2514 10 16 10C13.7486 10 11.671 10.744 9.99957 11.9996L10.7146 12.7146C12.1987 11.6361 14.0251 11 16 11C17.9749 11 19.8013 11.6361 21.2854 12.7146L22.0004 11.9996Z" fill="#0CEBFF"/>
<circle cx="16" cy="24" r="3.5" stroke="#0CEBFF"/>
<path d="M16 20.5V19.5M16 28.5V27.5M20.5 24H19.5M12.5 24H11.5M13.5251 21.5252L12.818 20.8181M19.182 27.1821L18.4749 26.475M19.182 20.8181L18.4749 21.5252M13.5251 26.475L12.818 27.1821" stroke="#0CEBFF" stroke-linecap="round"/>
<circle cx="16" cy="24" r="1" fill="#0CEBFF"/>
<path fill-rule="evenodd" clip-rule="evenodd" d="M20.899 19H25C27.7614 19 30 21.2386 30 24C30 26.7614 27.7614 29 25 29H20.899C20.51 29.3812 20.0767 29.7173 19.6076 30H25C28.3137 30 31 27.3137 31 24C31 20.6863 28.3137 18 25 18H19.6076C20.0767 18.2827 20.51 18.6188 20.899 19ZM12.3924 18H7C3.68629 18 1 20.6863 1 24C1 27.3137 3.68629 30 7 30H12.3924C11.9233 29.7173 11.49 29.3812 11.101 29H7C4.23858 29 2 26.7614 2 24C2 21.2386 4.23858 19 7 19H11.101C11.49 18.6188 11.9233 18.2827 12.3924 18Z" fill="#0CEBFF"/>
</svg>
