<svg width="32" height="32" viewBox="0 0 32 32" fill="none" xmlns="http://www.w3.org/2000/svg">
<path d="M2 9V2.5C2 2.22386 2.22386 2 2.5 2H9M2.5 2.5L9 9M23 2H29.5C29.7761 2 30 2.22386 30 2.5V9M29.5 2.5L23 9M30 23L30 29.5C30 29.7761 29.7761 30 29.5 30H23M29.5 29.5L23 23M9 30L2.5 30C2.22386 30 2 29.7761 2 29.5V23M2.5 29.5L9 23M20.5 14.1875C20.5 17.9821 16 22 16 22C16 22 11.5 17.9821 11.5 14.1875C11.5 11.5987 13.5147 9.5 16 9.5C18.4853 9.5 20.5 11.5987 20.5 14.1875Z" stroke="#0CEBFF" stroke-linecap="round"/>
</svg>
