<svg width="32" height="32" viewBox="0 0 32 32" fill="none" xmlns="http://www.w3.org/2000/svg">
<path d="M3.93001 28.08C3.1823 27.5749 2.56981 26.8942 2.14618 26.0975C1.72254 25.3008 1.50068 24.4123 1.50001 23.51V23.51C1.49869 22.7869 1.63999 22.0706 1.9158 21.4022C2.19161 20.7337 2.59653 20.1262 3.10738 19.6144C3.61824 19.1027 4.22499 18.6966 4.89294 18.4196C5.56088 18.1426 6.2769 18 7.00001 18H14" stroke="#0CEBFF" stroke-miterlimit="10" stroke-linecap="round"/>
<path d="M18.91 18H25C26.4587 18 27.8576 18.5795 28.8891 19.6109C29.9205 20.6424 30.5 22.0413 30.5 23.5C30.5 24.9587 29.9205 26.3576 28.8891 27.3891C27.8576 28.4205 26.4587 29 25 29H7.91" stroke="#0CEBFF" stroke-miterlimit="10" stroke-linecap="round"/>
<path d="M5.75 7.2599C8.33509 4.67112 11.8038 3.15601 15.4597 3.01876C19.1156 2.8815 22.6881 4.13224 25.46 6.5199" stroke="#0CEBFF" stroke-miterlimit="10" stroke-linecap="round"/>
<path d="M10 11.5C11.4632 10.0354 13.4112 9.1559 15.4775 9.02698C17.5439 8.89807 19.5861 9.52862 21.22 10.8" stroke="#0CEBFF" stroke-miterlimit="10" stroke-linecap="round"/>
<path d="M1.97 30L26.97 5" stroke="#0CEBFF" stroke-miterlimit="10" stroke-linecap="round"/>
</svg>
