<svg width="32" height="32" viewBox="0 0 32 32" fill="none" xmlns="http://www.w3.org/2000/svg">
<path d="M25.8995 4.68629L25.7795 8.68126C25.779 8.69754 25.7753 8.71376 25.7687 8.729C25.762 8.74423 25.7525 8.75818 25.7406 8.77004C25.7287 8.7819 25.7148 8.79144 25.6996 8.79811C25.6843 8.80478 25.6681 8.80845 25.6518 8.80891L21.6569 8.92893M25.5459 8.57538L24.4853 7.51472C19.799 2.82843 12.201 2.82843 7.51472 7.51472C4.37397 10.6555 3.33815 15.1041 4.40726 19.1075M6.64873 27.8619L6.76875 23.8669C6.76921 23.8507 6.77288 23.8344 6.77955 23.8192C6.78622 23.804 6.79576 23.79 6.80762 23.7782C6.81948 23.7663 6.83342 23.7568 6.84866 23.7501C6.8639 23.7434 6.88012 23.7398 6.8964 23.7393L10.8914 23.6193M7.51473 24.4853C12.201 29.1716 19.799 29.1716 24.4853 24.4853C27.626 21.3445 28.6619 16.8959 27.5928 12.8925" stroke="#0CEBFF" stroke-miterlimit="10" stroke-linecap="round"/>
</svg>
