<svg width="32" height="32" viewBox="0 0 32 32" fill="none" xmlns="http://www.w3.org/2000/svg">
<path d="M8.88362 27V4.59998H16.1156C17.865 4.59998 19.2943 4.88798 20.4036 5.46398C21.513 6.03998 22.3343 6.82931 22.8676 7.83198C23.401 8.83464 23.6676 9.94398 23.6676 11.16C23.6676 12.568 23.2836 13.8373 22.5156 14.968C21.769 16.0986 20.5956 16.8986 18.9956 17.368L23.8916 27H20.7236L16.1796 17.752H11.5716V27H8.88362ZM11.5716 15.64H15.9236C17.6516 15.64 18.9103 15.224 19.6996 14.392C20.489 13.56 20.8836 12.4933 20.8836 11.192C20.8836 9.86931 20.489 8.82398 19.6996 8.05598C18.9316 7.26664 17.6623 6.87198 15.8916 6.87198H11.5716V15.64Z" fill="#C69C4D"/>
</svg>
