<svg width="32" height="32" viewBox="0 0 32 32" fill="none" xmlns="http://www.w3.org/2000/svg">
<path d="M16 30.5C16 30.5 2.5 26.5 2.5 5.5L16 1.5L29.5 5.5C29.5 26.5 16 30.5 16 30.5Z" stroke="#0CEBFF" stroke-miterlimit="10" stroke-linecap="round"/>
<path d="M10.931 9C10.931 9 13.1034 7 16 7C18.8966 7 21.069 9 21.069 9M18.6552 11.5C18.6552 11.5 17.4483 10.5 16 10.5C14.5517 10.5 13.3448 11.5 13.3448 11.5M11.6552 20H20.3448C21.9445 20 23 18.9069 23 17.25C23 15.5931 21.9445 14.5 20.3448 14.5H11.6552C10.0555 14.5 9 15.5931 9 17.25C9 18.9069 10.0555 20 11.6552 20Z" stroke="#0CEBFF"/>
</svg>
