<svg width="32" height="32" viewBox="0 0 32 32" fill="none" xmlns="http://www.w3.org/2000/svg">
<path d="M27.25 4L29.99 6.74C30.0012 6.75115 30.0101 6.7644 30.0161 6.77898C30.0222 6.79357 30.0253 6.80921 30.0253 6.825C30.0253 6.84079 30.0222 6.85643 30.0161 6.87102C30.0101 6.8856 30.0012 6.89885 29.99 6.91L27.25 9.65M30 6.83008H25C22.7909 6.83008 21 8.62094 21 10.8301V18.5M17 5H2.77778C2.34822 5 2 5.3648 2 5.81481V26.1852C2 26.6352 2.34822 27 2.77778 27H29.2222C29.6518 27 30 26.6352 30 26.1852V14M15 10H2.5" stroke="#0CEBFF" stroke-miterlimit="10" stroke-linecap="round"/>
</svg>
