<svg width="32" height="32" viewBox="0 0 32 32" fill="none" xmlns="http://www.w3.org/2000/svg">
<path d="M16 30.5C16 30.5 2.5 26.5 2.5 5.5L16 1.5L29.5 5.5C29.5 26.5 16 30.5 16 30.5Z" stroke="#0CEBFF" stroke-miterlimit="10" stroke-linecap="round"/>
<path d="M22.23 18.7L16 23.5L9.57 19.26C9.39286 19.1367 9.2484 18.9721 9.14909 18.7804C9.04979 18.5888 8.99861 18.3758 9 18.16V13.5L16 12.5L23 13.5V17.19C22.9996 17.4845 22.9297 17.7748 22.7959 18.0373C22.6621 18.2997 22.4682 18.5267 22.23 18.7Z" stroke="#0CEBFF" stroke-miterlimit="10" stroke-linecap="round"/>
<path d="M11 13.21V8.5L16 7.5L21 8.5V13.21" stroke="#0CEBFF" stroke-miterlimit="10" stroke-linecap="round"/>
<path d="M16 7.5V5.5" stroke="#0CEBFF" stroke-miterlimit="10" stroke-linecap="round"/>
</svg>
