<svg width="32" height="32" viewBox="0 0 32 32" fill="none" xmlns="http://www.w3.org/2000/svg">
<path d="M30.7266 16.1565C30.7097 20.8905 29.0155 25.1703 26.29 28.263C28.7978 25.3746 30.7107 20.6269 30.7266 16.1565ZM30.7266 16.1565C30.7435 11.4226 29.0798 7.13078 26.3764 4.0188C28.8635 6.92502 30.7425 11.6861 30.7266 16.1565ZM23.7266 16.1316C23.7175 18.7046 22.965 21.0765 21.7026 22.9822C22.7631 21.2906 23.7185 18.4242 23.7266 16.1316ZM23.7266 16.1316C23.7358 13.5585 23.0003 11.1814 21.7515 9.26669C22.7999 10.9658 23.7348 13.8389 23.7266 16.1316ZM8.5625 20.2916H2.9375C2.68886 20.2916 2.4504 20.1907 2.27459 20.0109C2.09877 19.8312 2 19.5875 2 19.3333V11.6666C2 11.4125 2.09877 11.1687 2.27459 10.989C2.4504 10.8093 2.68886 10.7083 2.9375 10.7083H8.5625L15.3777 5.28982C16.0329 4.76886 17 5.23547 17 6.07257V24.9274C17 25.7645 16.0329 26.2311 15.3777 25.7101L8.5625 20.2916Z" stroke="#0CEBFF" stroke-linecap="round" stroke-linejoin="round"/>
</svg>
