<svg width="32" height="32" viewBox="0 0 32 32" fill="none" xmlns="http://www.w3.org/2000/svg">
<path d="M30.7266 16.1567C30.7097 20.8906 29.0155 25.1705 26.29 28.2631C28.7978 25.3747 30.7107 20.6271 30.7266 16.1567ZM30.7266 16.1567C30.7435 11.4227 29.0798 7.1309 26.3764 4.01892C28.8635 6.92514 30.7425 11.6863 30.7266 16.1567ZM23.7266 16.1316C23.7175 18.7047 22.965 21.0766 21.7026 22.9823C22.7631 21.2907 23.7185 18.4243 23.7266 16.1316ZM23.7266 16.1316C23.7358 13.5586 23.0003 11.1815 21.7515 9.26678C22.7999 10.9659 23.7348 13.839 23.7266 16.1316ZM4.86957 5L24 26M12.5456 7.74432L15.76 5.24581C16.3882 4.75752 17.3043 5.20425 17.3043 5.99888V12.9705M17.3043 18.65V25.0028C17.3043 25.7972 16.3889 26.244 15.7606 25.7563L8.95471 20.4738C8.78681 20.3435 8.58017 20.2727 8.36746 20.2727H2.95652C2.70284 20.2727 2.45954 20.1722 2.28016 19.9931C2.10078 19.8141 2 19.5713 2 19.3182V11.6818C2 11.4287 2.10078 11.1859 2.28016 11.0069C2.45954 10.8278 2.70284 10.7273 2.95652 10.7273H10.0826" stroke="#0CEBFF" stroke-linecap="round" stroke-linejoin="round"/>
</svg>
