<svg width="32" height="32" viewBox="0 0 32 32" fill="none" xmlns="http://www.w3.org/2000/svg">
<path d="M16.2504 19.2355L16.5 19.0911V18.8027V5C16.5 3.61929 17.6193 2.5 19 2.5C20.3807 2.5 21.5 3.61929 21.5 5V18.8027V19.0911L21.7496 19.2355C23.3949 20.1872 24.5 21.9649 24.5 24C24.5 27.0376 22.0376 29.5 19 29.5C15.9624 29.5 13.5 27.0376 13.5 24C13.5 21.9649 14.6051 20.1872 16.2504 19.2355Z" stroke="#0CEBFF"/>
<circle cx="19" cy="24" r="2" fill="#0CEBFF"/>
<path d="M10 5H4M10 21H4M10 13H4M10 9H7M10 17H7" stroke="#0CEBFF" stroke-linecap="round"/>
</svg>
