<svg width="32" height="32" viewBox="0 0 32 32" fill="none" xmlns="http://www.w3.org/2000/svg">
<path fill-rule="evenodd" clip-rule="evenodd" d="M9.30306 26.9395C9.52939 26.9793 9.76227 27 10 27H22C24.2091 27 26 25.2091 26 23V10.2426L25 11.2426V23C25 24.6569 23.6569 26 22 26H10.2426L9.30306 26.9395ZM7.73722 24.9698L7.02886 25.6782C6.38933 24.9691 6 24.03 6 23V9C6 6.79086 7.79086 5 10 5H22C23.5442 5 24.884 5.87504 25.5507 7.15632L24.7962 7.91085C24.3602 6.79246 23.2727 6 22 6H10C8.34315 6 7 7.34315 7 9V23C7 23.7539 7.27806 24.4428 7.73722 24.9698Z" fill="#0CEBFF"/>
<path d="M10.008 3.50971C10.2417 2.34115 11.2677 1.5 12.4594 1.5H19.5406C20.7323 1.5 21.7583 2.34115 21.992 3.50971L22.3901 5.5H9.6099L10.008 3.50971Z" stroke="#0CEBFF"/>
<path fill-rule="evenodd" clip-rule="evenodd" d="M9.20709 27.0355L10.2426 26H21.9802H23L22.8 27L22.4823 28.5883C22.2019 29.9906 20.9706 31 19.5406 31L12.4594 31C11.0294 31 9.79812 29.9906 9.51767 28.5883L9.20709 27.0355ZM10.4983 28.3922L10.2198 27L21.7802 27L21.5017 28.3922C21.3148 29.3271 20.4939 30 19.5406 30L12.4594 30C11.5061 30 10.6852 29.3271 10.4983 28.3922Z" fill="#0CEBFF"/>
<path d="M27 5L5 27" stroke="#0CEBFF" stroke-linecap="round"/>
</svg>
