<svg width="32" height="32" viewBox="0 0 32 32" fill="none" xmlns="http://www.w3.org/2000/svg">
<path d="M6.5 9C6.5 7.067 8.067 5.5 10 5.5H22C23.933 5.5 25.5 7.067 25.5 9V23C25.5 24.933 23.933 26.5 22 26.5H10C8.067 26.5 6.5 24.933 6.5 23V9Z" stroke="#0CEBFF"/>
<path d="M10.008 3.50971C10.2417 2.34115 11.2677 1.5 12.4594 1.5H19.5406C20.7323 1.5 21.7583 2.34115 21.992 3.50971L22.3901 5.5H9.6099L10.008 3.50971Z" stroke="#0CEBFF"/>
<path d="M10.008 28.4903L9.6099 26.5L22.3901 26.5L21.992 28.4903C21.7583 29.6589 20.7323 30.5 19.5406 30.5L12.4594 30.5C11.2677 30.5 10.2417 29.6589 10.008 28.4903Z" stroke="#0CEBFF"/>
</svg>
