<svg width="32" height="32" viewBox="0 0 32 32" fill="none" xmlns="http://www.w3.org/2000/svg">
<path d="M13.81 27.72C11.4777 27.5468 9.23537 26.7476 7.31926 25.4067C5.40315 24.0658 3.88426 22.2328 2.92265 20.1009C1.96105 17.969 1.59236 15.6173 1.85543 13.2934C2.1185 10.9695 3.00359 8.75968 4.41742 6.89673C5.83125 5.03377 7.72146 3.58672 9.88883 2.70807C12.0562 1.82942 14.4205 1.55172 16.7324 1.90424C19.0444 2.25676 21.2185 3.22644 23.0255 4.71108C24.8325 6.19572 26.2056 8.14034 27 10.34M13.83 27.64C10.4 26.8 7.75 21.35 7.75 14.75C7.75 7.57 10.88 1.75 14.75 1.75C17.54 1.75 19.95 4.75 21.07 9.17M4.13 7.25H25.37M4.13 22.25H14.5M1.75 14.75H15.5M14.75 2.02V15.5M30 19C30 24.3137 24 30.5 24 30.5C24 30.5 18 24.3137 18 19C18 15.6863 20.6863 13 24 13C27.3137 13 30 15.6863 30 19ZM26 19C26 20.1046 25.1046 21 24 21C22.8954 21 22 20.1046 22 19C22 17.8954 22.8954 17 24 17C25.1046 17 26 17.8954 26 19Z" stroke="#0CEBFF" stroke-miterlimit="10" stroke-linecap="round"/>
</svg>
