<svg width="26" height="21" viewBox="0 0 26 21" fill="none" xmlns="http://www.w3.org/2000/svg">
<path d="M0 2.28261C0 1.02196 0.881863 0 1.9697 0C3.05753 0 3.93939 1.02196 3.93939 2.28261C3.93939 3.54326 3.05753 4.56522 1.9697 4.56522C0.881863 4.56522 0 3.54326 0 2.28261Z" fill="#2BE9C8"/>
<path d="M7.09091 2.28261C7.09091 1.02196 7.97277 0 9.06061 0H20.0909C21.1787 0 22.0606 1.02196 22.0606 2.28261C22.0606 3.54326 21.1787 4.56522 20.0909 4.56522H9.06061C7.97277 4.56522 7.09091 3.54326 7.09091 2.28261Z" fill="#2BE9C8"/>
<path d="M12.6061 10.5C12.6061 9.23935 13.4879 8.21739 14.5758 8.21739H24.0303C25.1181 8.21739 26 9.23935 26 10.5C26 11.7607 25.1181 12.7826 24.0303 12.7826H14.5758C13.4879 12.7826 12.6061 11.7607 12.6061 10.5Z" fill="#2BE9C8"/>
<path d="M18.1212 18.7174C18.1212 17.4567 19.0031 16.4348 20.0909 16.4348C21.1787 16.4348 22.0606 17.4567 22.0606 18.7174C22.0606 19.978 21.1787 21 20.0909 21C19.0031 21 18.1212 19.978 18.1212 18.7174Z" fill="#2BE9C8"/>
<path d="M0 18.7174C0 17.4567 0.881863 16.4348 1.9697 16.4348H13C14.0878 16.4348 14.9697 17.4567 14.9697 18.7174C14.9697 19.978 14.0878 21 13 21H1.9697C0.881863 21 0 19.978 0 18.7174Z" fill="#2BE9C8"/>
<path d="M0 10.5C0 9.23935 0.881863 8.21739 1.9697 8.21739H7.48485C8.57268 8.21739 9.45455 9.23935 9.45455 10.5C9.45455 11.7607 8.57268 12.7826 7.48485 12.7826H1.9697C0.881863 12.7826 0 11.7607 0 10.5Z" fill="#2BE9C8"/>
</svg>
